<svg width="20" height="23" viewBox="0 0 20 23" fill="none" xmlns="http://www.w3.org/2000/svg">
<path d="M1.75 20.6875C1.75 21.8477 2.65234 22.75 3.8125 22.75H16.1875C17.3047 22.75 18.25 21.8477 18.25 20.6875V6.25H1.75V20.6875ZM13.4375 9.6875C13.4375 9.34375 13.7383 9 14.125 9C14.4688 9 14.8125 9.34375 14.8125 9.6875V19.3125C14.8125 19.6992 14.4688 20 14.125 20C13.7383 20 13.4375 19.6992 13.4375 19.3125V9.6875ZM9.3125 9.6875C9.3125 9.34375 9.61328 9 10 9C10.3438 9 10.6875 9.34375 10.6875 9.6875V19.3125C10.6875 19.6992 10.3438 20 10 20C9.61328 20 9.3125 19.6992 9.3125 19.3125V9.6875ZM5.1875 9.6875C5.1875 9.34375 5.48828 9 5.875 9C6.21875 9 6.5625 9.34375 6.5625 9.6875V19.3125C6.5625 19.6992 6.21875 20 5.875 20C5.48828 20 5.1875 19.6992 5.1875 19.3125V9.6875ZM18.9375 2.125H13.7812L13.3516 1.35156C13.1797 1.00781 12.8359 0.75 12.4492 0.75H7.50781C7.12109 0.75 6.77734 1.00781 6.60547 1.35156L6.21875 2.125H1.0625C0.675781 2.125 0.375 2.46875 0.375 2.8125V4.1875C0.375 4.57422 0.675781 4.875 1.0625 4.875H18.9375C19.2812 4.875 19.625 4.57422 19.625 4.1875V2.8125C19.625 2.46875 19.2812 2.125 18.9375 2.125Z" fill="#262626"/>
</svg>
