<svg width="24" height="18" viewBox="0 0 24 18" fill="none" xmlns="http://www.w3.org/2000/svg">
<path d="M21.75 3H12.75L9.75 0H2.25C0.984375 0 0 1.03125 0 2.25V15.75C0 17.0156 0.984375 18 2.25 18H21.75C22.9688 18 24 17.0156 24 15.75V5.25C24 4.03125 22.9688 3 21.75 3ZM16.8281 10.875C16.8281 11.2969 16.5 11.625 16.0781 11.625H13.0781V14.625C13.0781 15.0469 12.75 15.375 12.3281 15.375H11.5781C11.1562 15.375 10.8281 15.0469 10.8281 14.625V11.625H7.82812C7.40625 11.625 7.07812 11.2969 7.07812 10.875V10.125C7.07812 9.75 7.40625 9.375 7.82812 9.375H10.8281V6.375C10.8281 6 11.1562 5.625 11.5781 5.625H12.3281C12.75 5.625 13.0781 6 13.0781 6.375V9.375H16.0781C16.5 9.375 16.8281 9.75 16.8281 10.125V10.875Z" fill="#262626"/>
</svg>
